<?xml version="1.0" encoding="utf-8" standalone="no"?>
<!DOCTYPE svg PUBLIC "-//W3C//DTD SVG 1.1//EN"
  "http://www.w3.org/Graphics/SVG/1.1/DTD/svg11.dtd">
<svg xmlns:xlink="http://www.w3.org/1999/xlink" width="244.084682pt" height="150.85263pt" viewBox="0 0 244.084682 150.85263" xmlns="http://www.w3.org/2000/svg" version="1.1">
 <metadata>
  <rdf:RDF xmlns:dc="http://purl.org/dc/elements/1.1/" xmlns:cc="http://creativecommons.org/ns#" xmlns:rdf="http://www.w3.org/1999/02/22-rdf-syntax-ns#">
   <cc:Work>
    <dc:type rdf:resource="http://purl.org/dc/dcmitype/StillImage"/>
    <dc:date>2023-07-12T13:59:37.269015</dc:date>
    <dc:format>image/svg+xml</dc:format>
    <dc:creator>
     <cc:Agent>
      <dc:title>Matplotlib v3.7.1, https://matplotlib.org/</dc:title>
     </cc:Agent>
    </dc:creator>
   </cc:Work>
  </rdf:RDF>
 </metadata>
 <defs>
  <style type="text/css">*{stroke-linejoin: round; stroke-linecap: butt}</style>
 </defs>
 <g id="figure_1">
  <g id="patch_1">
   <path d="M 0 150.85263 
L 244.084682 150.85263 
L 244.084682 0 
L 0 0 
z
" style="fill: #212934"/>
  </g>
  <g id="axes_1">
   <g id="patch_2">
    <path d="M 66.0408 116.81263 
L 233.014682 116.81263 
L 233.014682 3.96 
L 66.0408 3.96 
z
" style="fill: #212934"/>
   </g>
   <g id="matplotlib.axis_1">
    <g id="xtick_1">
     <g id="line2d_1">
      <path d="M 66.0408 116.81263 
L 66.0408 3.96 
" clip-path="url(#p4ed55a4794)" style="fill: none; stroke-dasharray: 2.96,1.28; stroke-dashoffset: 0; stroke: #a8a8a8; stroke-width: 0.8"/>
     </g>
     <g id="line2d_2">
      <defs>
       <path id="mbe608183c1" d="M 0 0 
L 0 3.5 
" style="stroke: #ffffff; stroke-width: 0.8"/>
      </defs>
      <g>
       <use xlink:href="#mbe608183c1" x="66.0408" y="116.81263" style="fill: #ffffff; stroke: #ffffff; stroke-width: 0.8"/>
      </g>
     </g>
     <g id="text_1">
      <!-- 0.80 -->
      <g style="fill: #ffffff" transform="translate(54.907987 131.411067) scale(0.1 -0.1)">
       <defs>
        <path id="DejaVuSans-30" d="M 2034 4250 
Q 1547 4250 1301 3770 
Q 1056 3291 1056 2328 
Q 1056 1369 1301 889 
Q 1547 409 2034 409 
Q 2525 409 2770 889 
Q 3016 1369 3016 2328 
Q 3016 3291 2770 3770 
Q 2525 4250 2034 4250 
z
M 2034 4750 
Q 2819 4750 3233 4129 
Q 3647 3509 3647 2328 
Q 3647 1150 3233 529 
Q 2819 -91 2034 -91 
Q 1250 -91 836 529 
Q 422 1150 422 2328 
Q 422 3509 836 4129 
Q 1250 4750 2034 4750 
z
" transform="scale(0.015625)"/>
        <path id="DejaVuSans-2e" d="M 684 794 
L 1344 794 
L 1344 0 
L 684 0 
L 684 794 
z
" transform="scale(0.015625)"/>
        <path id="DejaVuSans-38" d="M 2034 2216 
Q 1584 2216 1326 1975 
Q 1069 1734 1069 1313 
Q 1069 891 1326 650 
Q 1584 409 2034 409 
Q 2484 409 2743 651 
Q 3003 894 3003 1313 
Q 3003 1734 2745 1975 
Q 2488 2216 2034 2216 
z
M 1403 2484 
Q 997 2584 770 2862 
Q 544 3141 544 3541 
Q 544 4100 942 4425 
Q 1341 4750 2034 4750 
Q 2731 4750 3128 4425 
Q 3525 4100 3525 3541 
Q 3525 3141 3298 2862 
Q 3072 2584 2669 2484 
Q 3125 2378 3379 2068 
Q 3634 1759 3634 1313 
Q 3634 634 3220 271 
Q 2806 -91 2034 -91 
Q 1263 -91 848 271 
Q 434 634 434 1313 
Q 434 1759 690 2068 
Q 947 2378 1403 2484 
z
M 1172 3481 
Q 1172 3119 1398 2916 
Q 1625 2713 2034 2713 
Q 2441 2713 2670 2916 
Q 2900 3119 2900 3481 
Q 2900 3844 2670 4047 
Q 2441 4250 2034 4250 
Q 1625 4250 1398 4047 
Q 1172 3844 1172 3481 
z
" transform="scale(0.015625)"/>
       </defs>
       <use xlink:href="#DejaVuSans-30"/>
       <use xlink:href="#DejaVuSans-2e" x="63.623047"/>
       <use xlink:href="#DejaVuSans-38" x="95.410156"/>
       <use xlink:href="#DejaVuSans-30" x="159.033203"/>
      </g>
     </g>
    </g>
    <g id="xtick_2">
     <g id="line2d_3">
      <path d="M 107.784271 116.81263 
L 107.784271 3.96 
" clip-path="url(#p4ed55a4794)" style="fill: none; stroke-dasharray: 2.96,1.28; stroke-dashoffset: 0; stroke: #a8a8a8; stroke-width: 0.8"/>
     </g>
     <g id="line2d_4">
      <g>
       <use xlink:href="#mbe608183c1" x="107.784271" y="116.81263" style="fill: #ffffff; stroke: #ffffff; stroke-width: 0.8"/>
      </g>
     </g>
     <g id="text_2">
      <!-- 0.85 -->
      <g style="fill: #ffffff" transform="translate(96.651458 131.411067) scale(0.1 -0.1)">
       <defs>
        <path id="DejaVuSans-35" d="M 691 4666 
L 3169 4666 
L 3169 4134 
L 1269 4134 
L 1269 2991 
Q 1406 3038 1543 3061 
Q 1681 3084 1819 3084 
Q 2600 3084 3056 2656 
Q 3513 2228 3513 1497 
Q 3513 744 3044 326 
Q 2575 -91 1722 -91 
Q 1428 -91 1123 -41 
Q 819 9 494 109 
L 494 744 
Q 775 591 1075 516 
Q 1375 441 1709 441 
Q 2250 441 2565 725 
Q 2881 1009 2881 1497 
Q 2881 1984 2565 2268 
Q 2250 2553 1709 2553 
Q 1456 2553 1204 2497 
Q 953 2441 691 2322 
L 691 4666 
z
" transform="scale(0.015625)"/>
       </defs>
       <use xlink:href="#DejaVuSans-30"/>
       <use xlink:href="#DejaVuSans-2e" x="63.623047"/>
       <use xlink:href="#DejaVuSans-38" x="95.410156"/>
       <use xlink:href="#DejaVuSans-35" x="159.033203"/>
      </g>
     </g>
    </g>
    <g id="xtick_3">
     <g id="line2d_5">
      <path d="M 149.527741 116.81263 
L 149.527741 3.96 
" clip-path="url(#p4ed55a4794)" style="fill: none; stroke-dasharray: 2.96,1.28; stroke-dashoffset: 0; stroke: #a8a8a8; stroke-width: 0.8"/>
     </g>
     <g id="line2d_6">
      <g>
       <use xlink:href="#mbe608183c1" x="149.527741" y="116.81263" style="fill: #ffffff; stroke: #ffffff; stroke-width: 0.8"/>
      </g>
     </g>
     <g id="text_3">
      <!-- 0.90 -->
      <g style="fill: #ffffff" transform="translate(138.394929 131.411067) scale(0.1 -0.1)">
       <defs>
        <path id="DejaVuSans-39" d="M 703 97 
L 703 672 
Q 941 559 1184 500 
Q 1428 441 1663 441 
Q 2288 441 2617 861 
Q 2947 1281 2994 2138 
Q 2813 1869 2534 1725 
Q 2256 1581 1919 1581 
Q 1219 1581 811 2004 
Q 403 2428 403 3163 
Q 403 3881 828 4315 
Q 1253 4750 1959 4750 
Q 2769 4750 3195 4129 
Q 3622 3509 3622 2328 
Q 3622 1225 3098 567 
Q 2575 -91 1691 -91 
Q 1453 -91 1209 -44 
Q 966 3 703 97 
z
M 1959 2075 
Q 2384 2075 2632 2365 
Q 2881 2656 2881 3163 
Q 2881 3666 2632 3958 
Q 2384 4250 1959 4250 
Q 1534 4250 1286 3958 
Q 1038 3666 1038 3163 
Q 1038 2656 1286 2365 
Q 1534 2075 1959 2075 
z
" transform="scale(0.015625)"/>
       </defs>
       <use xlink:href="#DejaVuSans-30"/>
       <use xlink:href="#DejaVuSans-2e" x="63.623047"/>
       <use xlink:href="#DejaVuSans-39" x="95.410156"/>
       <use xlink:href="#DejaVuSans-30" x="159.033203"/>
      </g>
     </g>
    </g>
    <g id="xtick_4">
     <g id="line2d_7">
      <path d="M 191.271212 116.81263 
L 191.271212 3.96 
" clip-path="url(#p4ed55a4794)" style="fill: none; stroke-dasharray: 2.96,1.28; stroke-dashoffset: 0; stroke: #a8a8a8; stroke-width: 0.8"/>
     </g>
     <g id="line2d_8">
      <g>
       <use xlink:href="#mbe608183c1" x="191.271212" y="116.81263" style="fill: #ffffff; stroke: #ffffff; stroke-width: 0.8"/>
      </g>
     </g>
     <g id="text_4">
      <!-- 0.95 -->
      <g style="fill: #ffffff" transform="translate(180.138399 131.411067) scale(0.1 -0.1)">
       <use xlink:href="#DejaVuSans-30"/>
       <use xlink:href="#DejaVuSans-2e" x="63.623047"/>
       <use xlink:href="#DejaVuSans-39" x="95.410156"/>
       <use xlink:href="#DejaVuSans-35" x="159.033203"/>
      </g>
     </g>
    </g>
    <g id="xtick_5">
     <g id="line2d_9">
      <path d="M 233.014682 116.81263 
L 233.014682 3.96 
" clip-path="url(#p4ed55a4794)" style="fill: none; stroke-dasharray: 2.96,1.28; stroke-dashoffset: 0; stroke: #a8a8a8; stroke-width: 0.8"/>
     </g>
     <g id="line2d_10">
      <g>
       <use xlink:href="#mbe608183c1" x="233.014682" y="116.81263" style="fill: #ffffff; stroke: #ffffff; stroke-width: 0.8"/>
      </g>
     </g>
     <g id="text_5">
      <!-- 1.00 -->
      <g style="fill: #ffffff" transform="translate(221.88187 131.411067) scale(0.1 -0.1)">
       <defs>
        <path id="DejaVuSans-31" d="M 794 531 
L 1825 531 
L 1825 4091 
L 703 3866 
L 703 4441 
L 1819 4666 
L 2450 4666 
L 2450 531 
L 3481 531 
L 3481 0 
L 794 0 
L 794 531 
z
" transform="scale(0.015625)"/>
       </defs>
       <use xlink:href="#DejaVuSans-31"/>
       <use xlink:href="#DejaVuSans-2e" x="63.623047"/>
       <use xlink:href="#DejaVuSans-30" x="95.410156"/>
       <use xlink:href="#DejaVuSans-30" x="159.033203"/>
      </g>
     </g>
    </g>
    <g id="xtick_6">
     <g id="line2d_11">
      <defs>
       <path id="m965178909d" d="M 0 0 
L 0 2 
" style="stroke: #ffffff; stroke-width: 0.6"/>
      </defs>
      <g>
       <use xlink:href="#m965178909d" x="86.912535" y="116.81263" style="fill: #ffffff; stroke: #ffffff; stroke-width: 0.6"/>
      </g>
     </g>
    </g>
    <g id="xtick_7">
     <g id="line2d_12">
      <g>
       <use xlink:href="#m965178909d" x="128.656006" y="116.81263" style="fill: #ffffff; stroke: #ffffff; stroke-width: 0.6"/>
      </g>
     </g>
    </g>
    <g id="xtick_8">
     <g id="line2d_13">
      <g>
       <use xlink:href="#m965178909d" x="170.399477" y="116.81263" style="fill: #ffffff; stroke: #ffffff; stroke-width: 0.6"/>
      </g>
     </g>
    </g>
    <g id="xtick_9">
     <g id="line2d_14">
      <g>
       <use xlink:href="#m965178909d" x="212.142947" y="116.81263" style="fill: #ffffff; stroke: #ffffff; stroke-width: 0.6"/>
      </g>
     </g>
    </g>
    <g id="text_6">
     <!-- $y \; \left[ \; \right]$ -->
     <g style="fill: #ffffff" transform="translate(139.927741 145.090755) scale(0.1 -0.1)">
      <defs>
       <path id="DejaVuSans-Oblique-79" d="M 1588 -325 
Q 1188 -997 936 -1164 
Q 684 -1331 294 -1331 
L -159 -1331 
L -63 -850 
L 269 -850 
Q 509 -850 678 -719 
Q 847 -588 1056 -206 
L 1234 128 
L 459 3500 
L 1069 3500 
L 1650 819 
L 3256 3500 
L 3859 3500 
L 1588 -325 
z
" transform="scale(0.015625)"/>
       <path id="DejaVuSans-5b" d="M 550 4863 
L 1875 4863 
L 1875 4416 
L 1125 4416 
L 1125 -397 
L 1875 -397 
L 1875 -844 
L 550 -844 
L 550 4863 
z
" transform="scale(0.015625)"/>
       <path id="DejaVuSans-5d" d="M 1947 4863 
L 1947 -844 
L 622 -844 
L 622 -397 
L 1369 -397 
L 1369 4416 
L 622 4416 
L 622 4863 
L 1947 4863 
z
" transform="scale(0.015625)"/>
      </defs>
      <use xlink:href="#DejaVuSans-Oblique-79" transform="translate(0 0.015625)"/>
      <use xlink:href="#DejaVuSans-5b" transform="translate(86.238823 0.015625)"/>
      <use xlink:href="#DejaVuSans-5d" transform="translate(152.311631 0.015625)"/>
     </g>
    </g>
   </g>
   <g id="matplotlib.axis_2">
    <g id="ytick_1">
     <g id="line2d_15">
      <path d="M 66.0408 116.81263 
L 233.014682 116.81263 
" clip-path="url(#p4ed55a4794)" style="fill: none; stroke-dasharray: 2.96,1.28; stroke-dashoffset: 0; stroke: #a8a8a8; stroke-width: 0.8"/>
     </g>
     <g id="line2d_16">
      <defs>
       <path id="mefa2fcefff" d="M 0 0 
L -3.5 0 
" style="stroke: #ffffff; stroke-width: 0.8"/>
      </defs>
      <g>
       <use xlink:href="#mefa2fcefff" x="66.0408" y="116.81263" style="fill: #ffffff; stroke: #ffffff; stroke-width: 0.8"/>
      </g>
     </g>
     <g id="text_7">
      <!-- −0.010 -->
      <g style="fill: #ffffff" transform="translate(22.032988 120.611849) scale(0.1 -0.1)">
       <defs>
        <path id="DejaVuSans-2212" d="M 678 2272 
L 4684 2272 
L 4684 1741 
L 678 1741 
L 678 2272 
z
" transform="scale(0.015625)"/>
       </defs>
       <use xlink:href="#DejaVuSans-2212"/>
       <use xlink:href="#DejaVuSans-30" x="83.789062"/>
       <use xlink:href="#DejaVuSans-2e" x="147.412109"/>
       <use xlink:href="#DejaVuSans-30" x="179.199219"/>
       <use xlink:href="#DejaVuSans-31" x="242.822266"/>
       <use xlink:href="#DejaVuSans-30" x="306.445312"/>
      </g>
     </g>
    </g>
    <g id="ytick_2">
     <g id="line2d_17">
      <path d="M 66.0408 88.599472 
L 233.014682 88.599472 
" clip-path="url(#p4ed55a4794)" style="fill: none; stroke-dasharray: 2.96,1.28; stroke-dashoffset: 0; stroke: #a8a8a8; stroke-width: 0.8"/>
     </g>
     <g id="line2d_18">
      <g>
       <use xlink:href="#mefa2fcefff" x="66.0408" y="88.599472" style="fill: #ffffff; stroke: #ffffff; stroke-width: 0.8"/>
      </g>
     </g>
     <g id="text_8">
      <!-- −0.005 -->
      <g style="fill: #ffffff" transform="translate(22.032988 92.398691) scale(0.1 -0.1)">
       <use xlink:href="#DejaVuSans-2212"/>
       <use xlink:href="#DejaVuSans-30" x="83.789062"/>
       <use xlink:href="#DejaVuSans-2e" x="147.412109"/>
       <use xlink:href="#DejaVuSans-30" x="179.199219"/>
       <use xlink:href="#DejaVuSans-30" x="242.822266"/>
       <use xlink:href="#DejaVuSans-35" x="306.445312"/>
      </g>
     </g>
    </g>
    <g id="ytick_3">
     <g id="line2d_19">
      <path d="M 66.0408 60.386315 
L 233.014682 60.386315 
" clip-path="url(#p4ed55a4794)" style="fill: none; stroke-dasharray: 2.96,1.28; stroke-dashoffset: 0; stroke: #a8a8a8; stroke-width: 0.8"/>
     </g>
     <g id="line2d_20">
      <g>
       <use xlink:href="#mefa2fcefff" x="66.0408" y="60.386315" style="fill: #ffffff; stroke: #ffffff; stroke-width: 0.8"/>
      </g>
     </g>
     <g id="text_9">
      <!-- 0.000 -->
      <g style="fill: #ffffff" transform="translate(30.412675 64.185534) scale(0.1 -0.1)">
       <use xlink:href="#DejaVuSans-30"/>
       <use xlink:href="#DejaVuSans-2e" x="63.623047"/>
       <use xlink:href="#DejaVuSans-30" x="95.410156"/>
       <use xlink:href="#DejaVuSans-30" x="159.033203"/>
       <use xlink:href="#DejaVuSans-30" x="222.65625"/>
      </g>
     </g>
    </g>
    <g id="ytick_4">
     <g id="line2d_21">
      <path d="M 66.0408 32.173157 
L 233.014682 32.173157 
" clip-path="url(#p4ed55a4794)" style="fill: none; stroke-dasharray: 2.96,1.28; stroke-dashoffset: 0; stroke: #a8a8a8; stroke-width: 0.8"/>
     </g>
     <g id="line2d_22">
      <g>
       <use xlink:href="#mefa2fcefff" x="66.0408" y="32.173157" style="fill: #ffffff; stroke: #ffffff; stroke-width: 0.8"/>
      </g>
     </g>
     <g id="text_10">
      <!-- 0.005 -->
      <g style="fill: #ffffff" transform="translate(30.412675 35.972376) scale(0.1 -0.1)">
       <use xlink:href="#DejaVuSans-30"/>
       <use xlink:href="#DejaVuSans-2e" x="63.623047"/>
       <use xlink:href="#DejaVuSans-30" x="95.410156"/>
       <use xlink:href="#DejaVuSans-30" x="159.033203"/>
       <use xlink:href="#DejaVuSans-35" x="222.65625"/>
      </g>
     </g>
    </g>
    <g id="ytick_5">
     <g id="line2d_23">
      <path d="M 66.0408 3.96 
L 233.014682 3.96 
" clip-path="url(#p4ed55a4794)" style="fill: none; stroke-dasharray: 2.96,1.28; stroke-dashoffset: 0; stroke: #a8a8a8; stroke-width: 0.8"/>
     </g>
     <g id="line2d_24">
      <g>
       <use xlink:href="#mefa2fcefff" x="66.0408" y="3.96" style="fill: #ffffff; stroke: #ffffff; stroke-width: 0.8"/>
      </g>
     </g>
     <g id="text_11">
      <!-- 0.010 -->
      <g style="fill: #ffffff" transform="translate(30.412675 7.759219) scale(0.1 -0.1)">
       <use xlink:href="#DejaVuSans-30"/>
       <use xlink:href="#DejaVuSans-2e" x="63.623047"/>
       <use xlink:href="#DejaVuSans-30" x="95.410156"/>
       <use xlink:href="#DejaVuSans-31" x="159.033203"/>
       <use xlink:href="#DejaVuSans-30" x="222.65625"/>
      </g>
     </g>
    </g>
    <g id="text_12">
     <!-- $j \; \left[ \frac{mol}{m^2 \; s} \right]$ -->
     <g style="fill: #ffffff" transform="translate(12.832988 75.486315) rotate(-90) scale(0.1 -0.1)">
      <defs>
       <path id="DejaVuSans-Oblique-6a" d="M 928 3500 
L 1503 3500 
L 813 -63 
L 809 -78 
Q 694 -675 544 -897 
Q 403 -1106 132 -1218 
Q -138 -1331 -506 -1331 
L -722 -1331 
L -628 -844 
L -481 -844 
Q -144 -844 -1 -703 
Q 141 -563 238 -63 
L 928 3500 
z
M 1197 4863 
L 1772 4863 
L 1631 4134 
L 1056 4134 
L 1197 4863 
z
" transform="scale(0.015625)"/>
       <path id="STIXSizeTwoSym-Regular-5b" d="M 2701 -1786 
L 1216 -1786 
L 1216 10022 
L 2701 10022 
L 2701 9766 
L 1702 9766 
L 1702 -1530 
L 2701 -1530 
L 2701 -1786 
z
" transform="scale(0.015625)"/>
       <path id="DejaVuSans-Oblique-6d" d="M 5747 2113 
L 5338 0 
L 4763 0 
L 5166 2094 
Q 5191 2228 5203 2325 
Q 5216 2422 5216 2491 
Q 5216 2772 5059 2928 
Q 4903 3084 4622 3084 
Q 4203 3084 3875 2770 
Q 3547 2456 3450 1953 
L 3066 0 
L 2491 0 
L 2900 2094 
Q 2925 2209 2937 2307 
Q 2950 2406 2950 2484 
Q 2950 2769 2794 2926 
Q 2638 3084 2363 3084 
Q 1938 3084 1609 2770 
Q 1281 2456 1184 1953 
L 800 0 
L 225 0 
L 909 3500 
L 1484 3500 
L 1375 2956 
Q 1609 3263 1923 3423 
Q 2238 3584 2597 3584 
Q 2978 3584 3223 3384 
Q 3469 3184 3519 2828 
Q 3781 3197 4126 3390 
Q 4472 3584 4856 3584 
Q 5306 3584 5551 3325 
Q 5797 3066 5797 2591 
Q 5797 2488 5784 2364 
Q 5772 2241 5747 2113 
z
" transform="scale(0.015625)"/>
       <path id="DejaVuSans-Oblique-6f" d="M 1625 -91 
Q 1009 -91 651 289 
Q 294 669 294 1325 
Q 294 1706 417 2101 
Q 541 2497 738 2766 
Q 1047 3184 1428 3384 
Q 1809 3584 2291 3584 
Q 2888 3584 3255 3212 
Q 3622 2841 3622 2241 
Q 3622 1825 3500 1412 
Q 3378 1000 3181 728 
Q 2875 309 2494 109 
Q 2113 -91 1625 -91 
z
M 891 1344 
Q 891 869 1089 633 
Q 1288 397 1691 397 
Q 2269 397 2648 901 
Q 3028 1406 3028 2181 
Q 3028 2634 2825 2865 
Q 2622 3097 2228 3097 
Q 1903 3097 1650 2945 
Q 1397 2794 1197 2484 
Q 1050 2253 970 1956 
Q 891 1659 891 1344 
z
" transform="scale(0.015625)"/>
       <path id="DejaVuSans-Oblique-6c" d="M 1172 4863 
L 1747 4863 
L 800 0 
L 225 0 
L 1172 4863 
z
" transform="scale(0.015625)"/>
       <path id="DejaVuSans-32" d="M 1228 531 
L 3431 531 
L 3431 0 
L 469 0 
L 469 531 
Q 828 903 1448 1529 
Q 2069 2156 2228 2338 
Q 2531 2678 2651 2914 
Q 2772 3150 2772 3378 
Q 2772 3750 2511 3984 
Q 2250 4219 1831 4219 
Q 1534 4219 1204 4116 
Q 875 4013 500 3803 
L 500 4441 
Q 881 4594 1212 4672 
Q 1544 4750 1819 4750 
Q 2544 4750 2975 4387 
Q 3406 4025 3406 3419 
Q 3406 3131 3298 2873 
Q 3191 2616 2906 2266 
Q 2828 2175 2409 1742 
Q 1991 1309 1228 531 
z
" transform="scale(0.015625)"/>
       <path id="DejaVuSans-Oblique-73" d="M 3200 3397 
L 3091 2853 
Q 2863 2978 2609 3040 
Q 2356 3103 2088 3103 
Q 1634 3103 1373 2948 
Q 1113 2794 1113 2528 
Q 1113 2219 1719 2053 
Q 1766 2041 1788 2034 
L 1972 1978 
Q 2547 1819 2739 1644 
Q 2931 1469 2931 1166 
Q 2931 609 2489 259 
Q 2047 -91 1331 -91 
Q 1053 -91 747 -37 
Q 441 16 72 128 
L 184 722 
Q 500 559 806 475 
Q 1113 391 1394 391 
Q 1816 391 2080 572 
Q 2344 753 2344 1031 
Q 2344 1331 1650 1516 
L 1591 1531 
L 1394 1581 
Q 956 1697 753 1886 
Q 550 2075 550 2369 
Q 550 2928 970 3256 
Q 1391 3584 2113 3584 
Q 2397 3584 2667 3537 
Q 2938 3491 3200 3397 
z
" transform="scale(0.015625)"/>
       <path id="STIXSizeTwoSym-Regular-5d" d="M 1722 -1786 
L 237 -1786 
L 237 -1530 
L 1235 -1530 
L 1235 9766 
L 237 9766 
L 237 10022 
L 1722 10022 
L 1722 -1786 
z
" transform="scale(0.015625)"/>
      </defs>
      <use xlink:href="#DejaVuSans-Oblique-6a" transform="translate(0 0.01875)"/>
      <use xlink:href="#STIXSizeTwoSym-Regular-5b" transform="translate(54.842339 -29) scale(0.810806)"/>
      <use xlink:href="#DejaVuSans-Oblique-6d" transform="translate(107.078698 44.810938) scale(0.7)"/>
      <use xlink:href="#DejaVuSans-Oblique-6f" transform="translate(175.267174 44.810938) scale(0.7)"/>
      <use xlink:href="#DejaVuSans-Oblique-6c" transform="translate(218.094323 44.810938) scale(0.7)"/>
      <use xlink:href="#DejaVuSans-Oblique-6d" transform="translate(92.078698 -50.598437) scale(0.7)"/>
      <use xlink:href="#DejaVuSans-32" transform="translate(163.522101 -23.801562) scale(0.49)"/>
      <use xlink:href="#DejaVuSans-Oblique-73" transform="translate(215.552852 -50.598437) scale(0.7)"/>
      <use xlink:href="#STIXSizeTwoSym-Regular-5d" transform="translate(264.522578 -29) scale(0.810806)"/>
      <path d="M 92.078698 18.815625 
L 92.078698 25.065625 
L 252.022578 25.065625 
L 252.022578 18.815625 
L 92.078698 18.815625 
z
"/>
     </g>
    </g>
   </g>
   <g id="line2d_25">
    <path d="M 66.0408 119.75226 
L 67.727405 119.526202 
L 69.41401 119.29775 
L 71.100615 119.066876 
L 72.787219 118.833553 
L 74.473824 118.597751 
L 76.160429 118.359438 
L 77.847034 118.118585 
L 79.533639 117.875159 
L 81.220244 117.629127 
L 82.906849 117.380456 
L 84.593454 117.129112 
L 86.280058 116.875057 
L 87.966663 116.618256 
L 89.653268 116.358671 
L 91.339873 116.096263 
L 93.026478 115.830991 
L 94.713083 115.562815 
L 96.399688 115.291692 
L 98.086293 115.017578 
L 99.772897 114.740427 
L 101.459502 114.460194 
L 103.146107 114.17683 
L 104.832712 113.890284 
L 106.519317 113.600507 
L 108.205922 113.307444 
L 109.892527 113.011041 
L 111.579132 112.711242 
L 113.265736 112.407986 
L 114.952341 112.101214 
L 116.638946 111.790863 
L 118.325551 111.476866 
L 120.012156 111.159158 
L 121.698761 110.837667 
L 123.385366 110.512321 
L 125.071971 110.183044 
L 126.758575 109.849758 
L 128.44518 109.512381 
L 130.131785 109.170828 
L 131.81839 108.825012 
L 133.504995 108.474839 
L 135.1916 108.120214 
L 136.878205 107.761038 
L 138.56481 107.397205 
L 140.251414 107.028607 
L 141.938019 106.655129 
L 143.624624 106.276654 
L 145.311229 105.893056 
L 146.997834 105.504204 
L 148.684439 105.109961 
L 150.371044 104.710184 
L 152.057649 104.304722 
L 153.744253 103.893415 
L 155.430858 103.476096 
L 157.117463 103.052588 
L 158.804068 102.622706 
L 160.490673 102.186253 
L 162.177278 101.743021 
L 163.863883 101.292789 
L 165.550488 100.835324 
L 167.237092 100.370378 
L 168.923697 99.897686 
L 170.610302 99.416966 
L 172.296907 98.927919 
L 173.983512 98.430224 
L 175.670117 97.923536 
L 177.356722 97.407486 
L 179.043327 96.881677 
L 180.729931 96.345682 
L 182.416536 95.799036 
L 184.103141 95.24124 
L 185.789746 94.671749 
L 187.476351 94.08997 
L 189.162956 93.495256 
L 190.849561 92.886896 
L 192.536165 92.26411 
L 194.22277 91.626034 
L 195.909375 90.971711 
L 197.59598 90.300076 
L 199.282585 89.609934 
L 200.96919 88.899943 
L 202.655795 88.168579 
L 204.3424 87.414109 
L 206.029004 86.63454 
L 207.715609 85.827565 
L 209.402214 84.990487 
L 211.088819 84.120121 
L 212.775424 83.21266 
L 214.462029 82.263489 
L 216.148634 81.266919 
L 217.835239 80.215807 
L 219.521843 79.100963 
L 221.208448 77.91023 
L 222.895053 76.626922 
L 224.581658 75.227044 
L 226.268263 73.673805 
L 227.954868 71.905331 
L 229.641473 69.801105 
L 231.328078 67.050325 
L 233.014682 60.386315 
" clip-path="url(#p4ed55a4794)" style="fill: none; stroke: #ffe15d; stroke-width: 1.5; stroke-linecap: square"/>
   </g>
   <g id="line2d_26">
    <path d="M 66.0408 82.429078 
L 67.727405 82.345141 
L 69.41401 82.260316 
L 71.100615 82.174592 
L 72.787219 82.087959 
L 74.473824 82.000404 
L 76.160429 81.911918 
L 77.847034 81.822489 
L 79.533639 81.732104 
L 81.220244 81.640752 
L 82.906849 81.548419 
L 84.593454 81.455094 
L 86.280058 81.360763 
L 87.966663 81.265412 
L 89.653268 81.169027 
L 91.339873 81.071594 
L 93.026478 80.973098 
L 94.713083 80.873523 
L 96.399688 80.772854 
L 98.086293 80.671075 
L 99.772897 80.568168 
L 101.459502 80.464117 
L 103.146107 80.358903 
L 104.832712 80.252507 
L 106.519317 80.144912 
L 108.205922 80.036097 
L 109.892527 79.926042 
L 111.579132 79.814725 
L 113.265736 79.702125 
L 114.952341 79.58822 
L 116.638946 79.472986 
L 118.325551 79.356398 
L 120.012156 79.238432 
L 121.698761 79.119061 
L 123.385366 78.998259 
L 125.071971 78.875997 
L 126.758575 78.752247 
L 128.44518 78.626978 
L 130.131785 78.500159 
L 131.81839 78.371756 
L 133.504995 78.241735 
L 135.1916 78.110062 
L 136.878205 77.976699 
L 138.56481 77.841606 
L 140.251414 77.704745 
L 141.938019 77.566072 
L 143.624624 77.425542 
L 145.311229 77.283111 
L 146.997834 77.138729 
L 148.684439 76.992346 
L 150.371044 76.843907 
L 152.057649 76.693358 
L 153.744253 76.540638 
L 155.430858 76.385686 
L 157.117463 76.228437 
L 158.804068 76.06882 
L 160.490673 75.906764 
L 162.177278 75.74219 
L 163.863883 75.575018 
L 165.550488 75.40516 
L 167.237092 75.232524 
L 168.923697 75.057011 
L 170.610302 74.878519 
L 172.296907 74.696934 
L 173.983512 74.512138 
L 175.670117 74.324003 
L 177.356722 74.132393 
L 179.043327 73.937158 
L 180.729931 73.738141 
L 182.416536 73.53517 
L 184.103141 73.328059 
L 185.789746 73.116605 
L 187.476351 72.900588 
L 189.162956 72.679769 
L 190.849561 72.453883 
L 192.536165 72.222641 
L 194.22277 71.985721 
L 195.909375 71.742769 
L 197.59598 71.493389 
L 199.282585 71.237137 
L 200.96919 70.973515 
L 202.655795 70.701957 
L 204.3424 70.42182 
L 206.029004 70.132364 
L 207.715609 69.832731 
L 209.402214 69.521922 
L 211.088819 69.198752 
L 212.775424 68.861809 
L 214.462029 68.509379 
L 216.148634 68.139349 
L 217.835239 67.749068 
L 219.521843 67.335123 
L 221.208448 66.893 
L 222.895053 66.416503 
L 224.581658 65.896724 
L 226.268263 65.320002 
L 227.954868 64.663362 
L 229.641473 63.882056 
L 231.328078 62.860683 
L 233.014682 60.386315 
" clip-path="url(#p4ed55a4794)" style="fill: none; stroke: #f49d1a; stroke-width: 1.5; stroke-linecap: square"/>
   </g>
   <g id="line2d_27">
    <path d="M 66.0408 38.343552 
L 67.727405 38.427489 
L 69.41401 38.512314 
L 71.100615 38.598037 
L 72.787219 38.684671 
L 74.473824 38.772225 
L 76.160429 38.860712 
L 77.847034 38.950141 
L 79.533639 39.040526 
L 81.220244 39.131878 
L 82.906849 39.224211 
L 84.593454 39.317536 
L 86.280058 39.411867 
L 87.966663 39.507218 
L 89.653268 39.603603 
L 91.339873 39.701036 
L 93.026478 39.799532 
L 94.713083 39.899107 
L 96.399688 39.999775 
L 98.086293 40.101555 
L 99.772897 40.204462 
L 101.459502 40.308513 
L 103.146107 40.413727 
L 104.832712 40.520122 
L 106.519317 40.627718 
L 108.205922 40.736533 
L 109.892527 40.846588 
L 111.579132 40.957905 
L 113.265736 41.070504 
L 114.952341 41.18441 
L 116.638946 41.299644 
L 118.325551 41.416232 
L 120.012156 41.534198 
L 121.698761 41.653569 
L 123.385366 41.774371 
L 125.071971 41.896632 
L 126.758575 42.020383 
L 128.44518 42.145652 
L 130.131785 42.272471 
L 131.81839 42.400874 
L 133.504995 42.530894 
L 135.1916 42.662568 
L 136.878205 42.795931 
L 138.56481 42.931023 
L 140.251414 43.067885 
L 141.938019 43.206558 
L 143.624624 43.347087 
L 145.311229 43.489519 
L 146.997834 43.633901 
L 148.684439 43.780284 
L 150.371044 43.928723 
L 152.057649 44.079272 
L 153.744253 44.231992 
L 155.430858 44.386944 
L 157.117463 44.544193 
L 158.804068 44.70381 
L 160.490673 44.865866 
L 162.177278 45.03044 
L 163.863883 45.197612 
L 165.550488 45.36747 
L 167.237092 45.540106 
L 168.923697 45.715618 
L 170.610302 45.894111 
L 172.296907 46.075696 
L 173.983512 46.260492 
L 175.670117 46.448626 
L 177.356722 46.640237 
L 179.043327 46.835472 
L 180.729931 47.034489 
L 182.416536 47.23746 
L 184.103141 47.444571 
L 185.789746 47.656025 
L 187.476351 47.872041 
L 189.162956 48.092861 
L 190.849561 48.318747 
L 192.536165 48.549989 
L 194.22277 48.786909 
L 195.909375 49.029861 
L 197.59598 49.279241 
L 199.282585 49.535493 
L 200.96919 49.799115 
L 202.655795 50.070673 
L 204.3424 50.35081 
L 206.029004 50.640266 
L 207.715609 50.939899 
L 209.402214 51.250708 
L 211.088819 51.573878 
L 212.775424 51.910821 
L 214.462029 52.263251 
L 216.148634 52.633281 
L 217.835239 53.023562 
L 219.521843 53.437507 
L 221.208448 53.87963 
L 222.895053 54.356126 
L 224.581658 54.875905 
L 226.268263 55.452628 
L 227.954868 56.109268 
L 229.641473 56.890574 
L 231.328078 57.911947 
L 233.014682 60.386315 
" clip-path="url(#p4ed55a4794)" style="fill: none; stroke: #dc3535; stroke-width: 1.5; stroke-linecap: square"/>
   </g>
   <g id="line2d_28">
    <path d="M 66.0408 1.02037 
L 67.727405 1.246428 
L 69.41401 1.47488 
L 71.100615 1.705753 
L 72.787219 1.939077 
L 74.473824 2.174879 
L 76.160429 2.413192 
L 77.847034 2.654045 
L 79.533639 2.897471 
L 81.220244 3.143503 
L 82.906849 3.392173 
L 84.593454 3.643518 
L 86.280058 3.897573 
L 87.966663 4.154374 
L 89.653268 4.413959 
L 91.339873 4.676367 
L 93.026478 4.941639 
L 94.713083 5.209815 
L 96.399688 5.480938 
L 98.086293 5.755052 
L 99.772897 6.032203 
L 101.459502 6.312436 
L 103.146107 6.5958 
L 104.832712 6.882345 
L 106.519317 7.172123 
L 108.205922 7.465185 
L 109.892527 7.761588 
L 111.579132 8.061388 
L 113.265736 8.364644 
L 114.952341 8.671416 
L 116.638946 8.981767 
L 118.325551 9.295763 
L 120.012156 9.613472 
L 121.698761 9.934963 
L 123.385366 10.260309 
L 125.071971 10.589586 
L 126.758575 10.922872 
L 128.44518 11.260249 
L 130.131785 11.601801 
L 131.81839 11.947618 
L 133.504995 12.297791 
L 135.1916 12.652416 
L 136.878205 13.011592 
L 138.56481 13.375425 
L 140.251414 13.744023 
L 141.938019 14.117501 
L 143.624624 14.495976 
L 145.311229 14.879574 
L 146.997834 15.268426 
L 148.684439 15.662669 
L 150.371044 16.062446 
L 152.057649 16.467908 
L 153.744253 16.879215 
L 155.430858 17.296534 
L 157.117463 17.720042 
L 158.804068 18.149924 
L 160.490673 18.586377 
L 162.177278 19.029609 
L 163.863883 19.47984 
L 165.550488 19.937306 
L 167.237092 20.402252 
L 168.923697 20.874944 
L 170.610302 21.355664 
L 172.296907 21.844711 
L 173.983512 22.342406 
L 175.670117 22.849094 
L 177.356722 23.365144 
L 179.043327 23.890952 
L 180.729931 24.426948 
L 182.416536 24.973594 
L 184.103141 25.53139 
L 185.789746 26.100881 
L 187.476351 26.68266 
L 189.162956 27.277374 
L 190.849561 27.885734 
L 192.536165 28.50852 
L 194.22277 29.146596 
L 195.909375 29.800919 
L 197.59598 30.472554 
L 199.282585 31.162696 
L 200.96919 31.872687 
L 202.655795 32.604051 
L 204.3424 33.358521 
L 206.029004 34.13809 
L 207.715609 34.945065 
L 209.402214 35.782143 
L 211.088819 36.652509 
L 212.775424 37.55997 
L 214.462029 38.509141 
L 216.148634 39.505711 
L 217.835239 40.556823 
L 219.521843 41.671667 
L 221.208448 42.8624 
L 222.895053 44.145708 
L 224.581658 45.545586 
L 226.268263 47.098825 
L 227.954868 48.867299 
L 229.641473 50.971525 
L 231.328078 53.722304 
L 233.014682 60.386315 
" clip-path="url(#p4ed55a4794)" style="fill: none; stroke: #b01e68; stroke-width: 1.5; stroke-linecap: square"/>
   </g>
   <g id="patch_3">
    <path d="M 66.0408 116.81263 
L 66.0408 3.96 
" style="fill: none; stroke: #d3d3d3; stroke-width: 1.5; stroke-linejoin: miter; stroke-linecap: square"/>
   </g>
   <g id="patch_4">
    <path d="M 233.014682 116.81263 
L 233.014682 3.96 
" style="fill: none; stroke: #d3d3d3; stroke-width: 1.5; stroke-linejoin: miter; stroke-linecap: square"/>
   </g>
   <g id="patch_5">
    <path d="M 66.0408 116.81263 
L 233.014682 116.81263 
" style="fill: none; stroke: #d3d3d3; stroke-width: 1.5; stroke-linejoin: miter; stroke-linecap: square"/>
   </g>
   <g id="patch_6">
    <path d="M 66.0408 3.96 
L 233.014682 3.96 
" style="fill: none; stroke: #d3d3d3; stroke-width: 1.5; stroke-linejoin: miter; stroke-linecap: square"/>
   </g>
   <g id="legend_1">
    <g id="patch_7">
     <path d="M 71.0408 70.75375 
L 160.2408 70.75375 
L 160.2408 8.96 
L 71.0408 8.96 
z
" style="fill: #212934; stroke: #ffffff; stroke-linejoin: miter"/>
    </g>
    <g id="line2d_29">
     <path d="M 75.0408 17.058437 
L 85.0408 17.058437 
L 95.0408 17.058437 
" style="fill: none; stroke: #ffe15d; stroke-width: 1.5; stroke-linecap: square"/>
    </g>
    <g id="text_13">
     <!-- $\eta=-0.15$ -->
     <g style="fill: #ffffff" transform="translate(103.0408 20.558437) scale(0.1 -0.1)">
      <defs>
       <path id="DejaVuSans-Oblique-3b7" d="M 3703 2113 
L 3034 -1331 
L 2459 -1331 
L 3125 2094 
Q 3222 2591 3075 2838 
Q 2931 3084 2544 3084 
Q 2078 3084 1750 2788 
Q 1425 2491 1325 1978 
L 941 0 
L 363 0 
L 1044 3500 
L 1622 3500 
L 1516 2956 
Q 1781 3272 2094 3428 
Q 2403 3584 2769 3584 
Q 3372 3584 3609 3213 
Q 3844 2838 3703 2113 
z
" transform="scale(0.015625)"/>
       <path id="DejaVuSans-3d" d="M 678 2906 
L 4684 2906 
L 4684 2381 
L 678 2381 
L 678 2906 
z
M 678 1631 
L 4684 1631 
L 4684 1100 
L 678 1100 
L 678 1631 
z
" transform="scale(0.015625)"/>
      </defs>
      <use xlink:href="#DejaVuSans-Oblique-3b7" transform="translate(0 0.78125)"/>
      <use xlink:href="#DejaVuSans-3d" transform="translate(82.861328 0.78125)"/>
      <use xlink:href="#DejaVuSans-2212" transform="translate(205.615234 0.78125)"/>
      <use xlink:href="#DejaVuSans-30" transform="translate(308.886719 0.78125)"/>
      <use xlink:href="#DejaVuSans-2e" transform="translate(372.509766 0.78125)"/>
      <use xlink:href="#DejaVuSans-31" transform="translate(404.296875 0.78125)"/>
      <use xlink:href="#DejaVuSans-35" transform="translate(467.919922 0.78125)"/>
     </g>
    </g>
    <g id="line2d_30">
     <path d="M 75.0408 31.756875 
L 85.0408 31.756875 
L 95.0408 31.756875 
" style="fill: none; stroke: #f49d1a; stroke-width: 1.5; stroke-linecap: square"/>
    </g>
    <g id="text_14">
     <!-- $\eta=-0.1$ -->
     <g style="fill: #ffffff" transform="translate(103.0408 35.256875) scale(0.1 -0.1)">
      <use xlink:href="#DejaVuSans-Oblique-3b7" transform="translate(0 0.78125)"/>
      <use xlink:href="#DejaVuSans-3d" transform="translate(82.861328 0.78125)"/>
      <use xlink:href="#DejaVuSans-2212" transform="translate(205.615234 0.78125)"/>
      <use xlink:href="#DejaVuSans-30" transform="translate(308.886719 0.78125)"/>
      <use xlink:href="#DejaVuSans-2e" transform="translate(372.509766 0.78125)"/>
      <use xlink:href="#DejaVuSans-31" transform="translate(404.296875 0.78125)"/>
     </g>
    </g>
    <g id="line2d_31">
     <path d="M 75.0408 46.455312 
L 85.0408 46.455312 
L 95.0408 46.455312 
" style="fill: none; stroke: #dc3535; stroke-width: 1.5; stroke-linecap: square"/>
    </g>
    <g id="text_15">
     <!-- $\eta=0.1$ -->
     <g style="fill: #ffffff" transform="translate(103.0408 49.955312) scale(0.1 -0.1)">
      <use xlink:href="#DejaVuSans-Oblique-3b7" transform="translate(0 0.78125)"/>
      <use xlink:href="#DejaVuSans-3d" transform="translate(82.861328 0.78125)"/>
      <use xlink:href="#DejaVuSans-30" transform="translate(186.132812 0.78125)"/>
      <use xlink:href="#DejaVuSans-2e" transform="translate(249.755859 0.78125)"/>
      <use xlink:href="#DejaVuSans-31" transform="translate(281.542969 0.78125)"/>
     </g>
    </g>
    <g id="line2d_32">
     <path d="M 75.0408 61.15375 
L 85.0408 61.15375 
L 95.0408 61.15375 
" style="fill: none; stroke: #b01e68; stroke-width: 1.5; stroke-linecap: square"/>
    </g>
    <g id="text_16">
     <!-- $\eta=0.15$ -->
     <g style="fill: #ffffff" transform="translate(103.0408 64.65375) scale(0.1 -0.1)">
      <use xlink:href="#DejaVuSans-Oblique-3b7" transform="translate(0 0.78125)"/>
      <use xlink:href="#DejaVuSans-3d" transform="translate(82.861328 0.78125)"/>
      <use xlink:href="#DejaVuSans-30" transform="translate(186.132812 0.78125)"/>
      <use xlink:href="#DejaVuSans-2e" transform="translate(249.755859 0.78125)"/>
      <use xlink:href="#DejaVuSans-31" transform="translate(281.542969 0.78125)"/>
      <use xlink:href="#DejaVuSans-35" transform="translate(345.166016 0.78125)"/>
     </g>
    </g>
   </g>
  </g>
 </g>
 <defs>
  <clipPath id="p4ed55a4794">
   <rect x="66.0408" y="3.96" width="166.973882" height="112.85263"/>
  </clipPath>
 </defs>
</svg>
