<?xml version="1.0" encoding="UTF-8" standalone="no"?>
<svg
   xmlns:dc="http://purl.org/dc/elements/1.1/"
   xmlns:cc="http://creativecommons.org/ns#"
   xmlns:rdf="http://www.w3.org/1999/02/22-rdf-syntax-ns#"
   xmlns:svg="http://www.w3.org/2000/svg"
   xmlns="http://www.w3.org/2000/svg"
   viewBox="0 0 100 25.333332"
   height="25.333332"
   width="100"
   xml:space="preserve"
   id="svg2"
   version="1.1"><metadata
     id="metadata8"><rdf:RDF><cc:Work
         rdf:about=""><dc:format>image/svg+xml</dc:format><dc:type
           rdf:resource="http://purl.org/dc/dcmitype/StillImage" /></cc:Work></rdf:RDF></metadata><defs
     id="defs6" /><g
     transform="matrix(1.3333333,0,0,-1.3333333,0,25.333333)"
     id="g10"><g
       transform="scale(0.1)"
       id="g12"><path
         id="path14"
         style="fill:#ffffff;fill-opacity:1;fill-rule:nonzero;stroke:none"
         d="M 325.898,190 V 155 H 275.352 V 5.85938 H 233.551 V 155 h -50.539 v 35 z M 380.59,5.85938 h 51.398 l 17.231,83.58982 c 3.082,14.1408 5.351,29.1018 7.621,42.6598 h 1.129 c 1.992,-13.558 4.222,-28.519 7.34,-42.6598 L 483.398,5.85938 h 52.223 L 568.398,190 H 528.59 L 515.859,103.871 C 513.32,84.9219 510.781,65.4297 508.238,45.6602 h -1.129 C 503.441,65.4297 499.77,85.2305 496.09,103.871 L 476.328,190 H 441.02 L 421.25,103.871 C 417.578,84.6484 413.91,65.1602 410.23,45.6602 h -1.128 c -2.262,19.5 -5.082,38.9882 -7.34,58.2108 L 389.059,190 H 346.41 Z m 216.051,0 h 41.8 V 82.0703 H 658.16 L 704.531,5.85938 H 750 L 692.77,101.02 736.988,190 h -41.476 l -37.66,-73.98 H 638.441 V 190 h -41.8 z m -478.981,0 h 41.7891 v 184.141 H 117.66 Z m -117.66,0 h 41.8008 v 184.141 H 0 Z M 55.1602,92.0313 H 104.34 V 109.961 H 55.1602 V 92.0313" /></g></g></svg>