<?xml version="1.0" encoding="UTF-8" standalone="no"?>
<svg
   xmlns:dc="http://purl.org/dc/elements/1.1/"
   xmlns:cc="http://creativecommons.org/ns#"
   xmlns:rdf="http://www.w3.org/1999/02/22-rdf-syntax-ns#"
   xmlns:svg="http://www.w3.org/2000/svg"
   xmlns="http://www.w3.org/2000/svg"
   viewBox="0 0 256 74.666664"
   height="74.666664"
   width="256"
   xml:space="preserve"
   id="svg2"
   version="1.1"><metadata
     id="metadata8"><rdf:RDF><cc:Work
         rdf:about=""><dc:format>image/svg+xml</dc:format><dc:type
           rdf:resource="http://purl.org/dc/dcmitype/StillImage" /></cc:Work></rdf:RDF></metadata><defs
     id="defs6" /><g
     transform="matrix(1.3333333,0,0,-1.3333333,0,74.666667)"
     id="g10"><g
       transform="scale(0.1)"
       id="g12"><path
         id="path14"
         style="fill:#ffffff;fill-opacity:1;fill-rule:evenodd;stroke:none"
         d="m 1694.53,358.59 h 25.8984 v 26.4492 H 1694.53 Z" /><path
         id="path16"
         style="fill:#ffffff;fill-opacity:1;fill-rule:evenodd;stroke:none"
         d="m 1765.27,358.59 h 25.8984 v 26.4492 H 1765.27 Z" /><path
         id="path18"
         style="fill:#ffffff;fill-opacity:1;fill-rule:evenodd;stroke:none"
         d="m 1367.27,206.84 -33.48,65.351 c 14.57,4.84 26.99,18.36 26.99,39.411 0,24.847 -17.81,45.898 -48.59,45.898 h -58.83 V 206.84 h 29.14 v 60.461 h 21.05 l 29.73,-60.461 z m -35.63,104.762 c 0,-11.872 -8.63,-20 -21.05,-20 h -28.09 v 39.957 h 28.09 c 12.42,0 21.05,-8.629 21.05,-19.957 z" /><path
         id="path20"
         style="fill:#ffffff;fill-opacity:1;fill-rule:evenodd;stroke:none"
         d="m 1808.98,206.84 -55.07,150.66 h -22.66 l -55.08,-150.66 h 30.78 l 9.18,26.988 h 53.44 l 8.63,-26.988 z m -47.5,51.832 h -37.26 l 18.9,54.527 z" /><path
         id="path22"
         style="fill:#ffffff;fill-opacity:1;fill-rule:evenodd;stroke:none"
         d="M 750.078,258.672 V 357.5 h -29.18 v -97.73 c 0,-17.309 -10.777,-27.54 -26.449,-27.54 -15.66,0 -25.929,10.231 -25.929,27.54 v 97.73 h -29.141 v -98.828 c 0,-31.832 24.293,-52.934 55.07,-52.934 30.781,0 55.629,21.102 55.629,52.934 z" /><path
         id="path24"
         style="fill:#ffffff;fill-opacity:1;fill-rule:evenodd;stroke:none"
         d="M 899.648,206.84 V 357.5 H 869.922 V 265.699 L 810.551,357.5 H 784.059 V 206.84 h 29.73 v 92.89 l 59.371,-92.89 z" /><path
         id="path26"
         style="fill:#ffffff;fill-opacity:1;fill-rule:evenodd;stroke:none"
         d="m 934.73,206.84 h 29.7305 V 357.5 H 934.73 Z" /><path
         id="path28"
         style="fill:#ffffff;fill-opacity:1;fill-rule:evenodd;stroke:none"
         d="m 1105.39,357.5 h -30.78 l -30.23,-97.73 -30.28,97.73 h -30.229 l 49.679,-150.66 h 21.61 z" /><path
         id="path30"
         style="fill:#ffffff;fill-opacity:1;fill-rule:evenodd;stroke:none"
         d="m 1223.63,207.379 v 25.902 h -69.65 v 36.758 h 59.42 v 25.902 h -59.42 v 35.618 h 69.65 V 357.5 H 1124.8 V 207.379 Z" /><path
         id="path32"
         style="fill:#ffffff;fill-opacity:1;fill-rule:evenodd;stroke:none"
         d="m 1489.84,251.68 c 0,12.929 -3.75,24.3 -11.87,31.84 -5.94,5.929 -14.57,9.718 -28.59,11.359 l -17.86,2.699 c -5.93,1.051 -10.78,3.242 -14.02,5.942 -2.7,2.691 -4.3,7.031 -4.3,10.781 0,10.269 7.54,18.898 23.21,18.898 10.27,0 21.6,-1.09 30.78,-10.269 l 18.9,18.359 c -12.97,12.422 -28.08,17.852 -48.59,17.852 -32.38,0 -52.38,-18.911 -52.38,-45.903 0,-12.418 3.24,-22.148 10.78,-29.718 6.48,-6.489 16.21,-10.282 29.18,-12.43 l 17.81,-2.692 c 7.03,-1.058 10.82,-2.148 13.52,-4.847 3.24,-3.242 4.84,-7.571 4.84,-12.961 0,-11.879 -9.73,-18.36 -26.99,-18.36 -13.52,0 -26.45,3.239 -36.17,12.418 l -18.91,-18.91 c 14.57,-15.117 31.84,-20 55.08,-20 31.29,0 55.58,16.762 55.58,45.942 z" /><path
         id="path34"
         style="fill:#ffffff;fill-opacity:1;fill-rule:evenodd;stroke:none"
         d="m 1518.48,206.84 h 29.1797 V 357.5 H 1518.48 Z" /><path
         id="path36"
         style="fill:#ffffff;fill-opacity:1;fill-rule:evenodd;stroke:none"
         d="M 1681.02,331.559 V 357.5 h -108.01 v -25.941 h 39.41 v -124.18 h 29.18 v 124.18 z" /><path
         id="path38"
         style="fill:#ffffff;fill-opacity:1;fill-rule:evenodd;stroke:none"
         d="M 1912.7,331.559 V 357.5 h -108.01 v -25.941 h 39.41 V 206.84 h 29.14 v 124.719 z" /><path
         id="path40"
         style="fill:#ffffff;fill-opacity:1;fill-rule:evenodd;stroke:none"
         d="m 748.441,82.6602 c 0,22.6488 2.149,43.1988 -15.121,59.9178 -9.73,10.274 -23.75,14.57 -39.41,14.57 H 639.379 V 6.48047 h 54.531 c 15.66,0 29.68,4.33983 39.41,14.60933 17.27,16.7188 15.121,38.8711 15.121,61.5704 z m -29.14,0 c 0,-23.25 -1.102,-34.0313 -6.492,-40.5118 -4.879,-5.9375 -11.868,-9.1796 -21.598,-9.1796 h -22.152 v 97.7302 h 22.152 c 9.73,0 16.719,-3.238 21.598,-9.179 5.39,-6.481 6.492,-16.211 6.492,-38.8598 z" /><path
         id="path42"
         style="fill:#ffffff;fill-opacity:1;fill-rule:evenodd;stroke:none"
         d="M 893.711,6.48047 860.23,71.2891 c 14.571,5.4297 27.54,18.3593 27.54,39.4099 0,25.391 -18.36,46.449 -49.141,46.449 H 779.77 V 6.48047 h 29.14 V 66.4492 h 21.602 L 859.691,6.48047 Z M 858.051,110.699 c 0,-11.3201 -8.09,-19.4099 -21.063,-19.4099 H 808.91 v 39.4099 h 28.078 c 12.973,0 21.063,-8.078 21.063,-20 z" /><path
         id="path44"
         style="fill:#ffffff;fill-opacity:1;fill-rule:evenodd;stroke:none"
         d="M 1018.44,6.48047 V 32.9688 h -70.202 v 36.1718 h 59.422 v 26.4492 h -59.422 v 35.1092 h 70.202 v 26.449 H 919.059 V 6.48047 Z" /><path
         id="path46"
         style="fill:#ffffff;fill-opacity:1;fill-rule:evenodd;stroke:none"
         d="m 1145.35,50.7813 c 0,13.5195 -3.79,24.2968 -11.87,31.8789 -6.49,5.9296 -15.16,9.7187 -28.64,11.8711 l -17.81,2.6992 c -5.94,0.5 -10.82,3.2385 -14.06,5.9295 -3.24,2.699 -4.3,7.039 -4.3,10.789 0,10.27 7.54,18.903 23.21,18.903 9.72,0 21.6,-1.602 30.78,-10.274 l 18.9,18.402 c -12.97,12.379 -28.08,17.258 -48.59,17.258 -32.93,0 -52.38,-18.898 -52.38,-45.347 0,-12.9691 3.24,-22.6918 10.27,-29.7308 7.03,-6.4414 16.72,-10.7813 29.69,-12.4219 l 17.81,-2.6875 c 7.03,-1.1016 10.27,-2.6992 13.52,-5.3906 3.24,-2.6993 4.29,-7.0391 4.29,-12.4297 0,-12.4219 -9.18,-18.9024 -26.44,-18.9024 -14.03,0 -27,3.2422 -36.18,12.9727 l -18.9,-18.9102 c 14.57,-15.1211 31.87,-19.96091 54.53,-19.96091 31.87,0 56.17,16.21091 56.17,45.35161 z" /><path
         id="path48"
         style="fill:#ffffff;fill-opacity:1;fill-rule:evenodd;stroke:none"
         d="m 1283.05,82.6602 c 0,22.6488 1.6,43.1988 -15.12,59.9178 -9.73,10.274 -24.3,14.57 -39.96,14.57 h -54.02 V 6.48047 h 54.02 c 15.66,0 30.23,4.33983 39.96,14.60933 16.72,16.7188 15.12,38.8711 15.12,61.5704 z m -29.18,0 c 0,-23.25 -1.1,-34.0313 -6.49,-40.5118 -4.84,-5.9375 -11.87,-9.1796 -22.11,-9.1796 h -22.15 v 97.7302 h 22.15 c 10.24,0 17.27,-3.238 22.11,-9.179 5.43,-6.481 6.49,-16.211 6.49,-38.8598 z" /><path
         id="path50"
         style="fill:#ffffff;fill-opacity:1;fill-rule:evenodd;stroke:none"
         d="M 1413.16,6.48047 V 32.9688 h -69.64 v 36.1718 h 59.41 v 26.4492 h -59.41 v 35.1092 h 69.64 v 26.449 h -98.78 V 6.48047 Z" /><path
         id="path52"
         style="fill:#ffffff;fill-opacity:1;fill-rule:evenodd;stroke:none"
         d="M 1558.44,6.48047 V 157.148 h -29.69 V 64.8398 l -59.41,92.3082 h -26.45 V 6.48047 h 29.69 V 98.8281 l 59.41,-92.34763 z" /><path
         id="path54"
         style="fill:#ffffff;fill-opacity:1;fill-rule:evenodd;stroke:none"
         d="m 747.34,532.461 v 25.937 H 639.379 v -25.937 h 39.41 V 408.238 h 29.141 v 124.223 z" /><path
         id="path56"
         style="fill:#ffffff;fill-opacity:1;fill-rule:evenodd;stroke:none"
         d="M 873.711,408.238 V 434.18 H 803.52 v 36.718 h 59.41 v 25.942 h -59.41 v 35.621 h 70.191 v 25.937 h -99.332 v -150.16 z" /><path
         id="path58"
         style="fill:#ffffff;fill-opacity:1;fill-rule:evenodd;stroke:none"
         d="M 1010.35,454.141 H 980.621 C 977.379,442.27 969.84,433.09 955.23,433.09 c -8.082,0 -14.57,2.691 -18.859,7.57 -5.941,6.488 -7.582,13.481 -7.582,42.66 0,29.141 1.641,36.168 7.582,42.66 4.289,4.879 10.777,7.571 18.859,7.571 14.61,0 22.149,-9.172 25.391,-21.09 h 29.729 C 1004.92,543.789 982.809,560 954.73,560 c -16.21,0 -29.691,-5.941 -40.511,-16.762 -15.117,-15.117 -14.571,-33.976 -14.571,-59.918 0,-25.941 -0.546,-44.8 14.571,-59.922 10.82,-10.82 24.301,-16.757 40.511,-16.757 28.079,0 50.19,16.211 55.62,47.5 z" /><path
         id="path60"
         style="fill:#ffffff;fill-opacity:1;fill-rule:evenodd;stroke:none"
         d="m 1147.5,408.238 v 150.16 h -29.14 V 496.84 h -51.33 v 61.558 h -29.14 v -150.16 h 29.14 v 62.66 h 51.33 v -62.66 z" /><path
         id="path62"
         style="fill:#ffffff;fill-opacity:1;fill-rule:evenodd;stroke:none"
         d="m 1300.31,408.238 v 150.16 h -29.14 v -91.839 l -59.96,91.839 h -25.9 v -150.16 h 29.14 v 92.352 l 59.93,-92.352 z" /><path
         id="path64"
         style="fill:#ffffff;fill-opacity:1;fill-rule:evenodd;stroke:none"
         d="m 1338.12,408.238 h 29.1406 v 150.16 H 1338.12 Z" /><path
         id="path66"
         style="fill:#ffffff;fill-opacity:1;fill-rule:evenodd;stroke:none"
         d="m 1502.27,452.539 c 0,12.973 -3.75,24.301 -11.88,31.871 -5.94,5.942 -14.57,9.692 -28.59,11.328 l -17.85,2.703 c -5.94,1.09 -10.79,3.239 -14.03,5.938 -2.69,3.242 -4.33,7.031 -4.33,10.781 0,10.27 7.57,18.899 23.24,18.899 10.23,0 21.6,-1.047 30.78,-10.231 l 18.91,18.363 c -12.97,12.418 -28.09,17.809 -48.64,17.809 -32.38,0 -52.34,-18.91 -52.34,-45.898 0,-12.422 3.24,-22.153 10.78,-29.692 6.48,-6.48 16.21,-10.269 29.14,-12.422 l 17.85,-2.687 c 7.03,-1.102 10.78,-2.192 13.48,-4.891 3.24,-3.238 4.88,-7.531 4.88,-12.961 0,-11.879 -9.72,-18.359 -27.03,-18.359 -13.48,0 -26.44,3.238 -36.17,12.422 l -18.91,-18.91 c 14.61,-15.122 31.88,-19.961 55.08,-19.961 31.33,0 55.63,16.757 55.63,45.898 z" /><path
         id="path68"
         style="fill:#ffffff;fill-opacity:1;fill-rule:evenodd;stroke:none"
         d="m 1638.36,454.141 h -29.69 c -2.69,-11.871 -10.82,-21.051 -25.39,-21.051 -8.08,0 -14.57,2.691 -18.9,7.57 -5.4,6.488 -7.04,13.481 -7.04,42.66 0,29.141 1.64,36.168 7.04,42.66 4.33,4.879 10.78,7.571 18.9,7.571 14.57,0 22.7,-9.172 25.39,-21.09 h 29.69 c -5.39,31.328 -26.99,47.539 -55.08,47.539 -16.76,0 -30.23,-5.941 -41.05,-16.762 -15.12,-15.117 -14.57,-33.976 -14.57,-59.918 0,-25.941 -0.55,-44.8 14.57,-59.922 10.82,-10.82 24.29,-16.757 41.05,-16.757 27.54,0 49.69,16.211 55.08,47.5 z" /><path
         id="path70"
         style="fill:#ffffff;fill-opacity:1;fill-rule:evenodd;stroke:none"
         d="m 1775.51,408.238 v 150.16 h -29.14 V 496.84 h -50.78 v 61.558 h -29.69 v -150.16 h 29.69 v 62.66 h 50.78 v -62.66 z" /><path
         id="path72"
         style="fill:#ffffff;fill-opacity:1;fill-rule:evenodd;stroke:none"
         d="m 1913.2,408.238 v 25.942 h -70.19 v 36.718 h 59.41 v 25.942 h -59.41 v 35.621 h 70.19 v 25.937 h -99.33 v -150.16 z" /><path
         id="path74"
         style="fill:#ffffff;fill-opacity:1;fill-rule:evenodd;stroke:none"
         d="M 33.4805,340.738 H 184.141 V 165.23 h 184.14 V 340.738 H 518.398 V 186.879 L 371.52,39.9609 H 180.352 L 33.4805,186.879 Z M 502.191,324.02 H 385.039 v -175.5 h -217.66 v 175.5 H 50.2305 V 193.32 L 187.379,56.7188 h 177.66 L 501.641,193.32 Z m -3.242,50.242 -133.91,133.898 H 187.379 L 53.4805,374.262 H 217.621 V 198.75 h 117.18 V 374.262 Z M 518.398,357.5 H 351.52 V 181.988 H 200.898 V 357.5 H 33.4805 v 20.512 L 180.352,524.879 H 371.52 L 518.398,378.012 Z M 0,390.98 V 173.91 L 167.379,6.48047 h 217.66 L 551.879,173.91 v 217.07 l -166.84,167.418 h -217.66 z m 16.7617,-6.492 V 180.391 L 173.871,23.2383 H 378.012 L 535.16,180.391 V 384.488 L 378.012,541.641 H 173.871 Z" /></g></g></svg>